<svg xmlns="http://www.w3.org/2000/svg" width="112" height="112" shape-rendering="crispEdges" viewBox="0 0 112 112"><path d="M18 20h6v9h-6zm0 9h3v6h-3zm0 48h3v3h-3zm3-63h3v3h-3zm0 3h12v3H21zm0 18h3v6h-3zm0 39h3v3h-3zm0 6h12v3H21zm3-69h6v3h-6zm0 18h3v3h-3zm0 12h3v12h-3zm0 30h3v3h-3zm0 27h3v6h-3zm3-66h15v3H27zm0 21h3v18h-3zm0 42h3v3h-3zm0 9h54v3H27zm3-96h9v3h-9zm0 15h9v3h-9zm0 69h3v3h-3zm3-72h18v3H33zm0 63h3v9h-3zm6-78h36v3H39zm0 60h21v3H39zm3-36h3v3h-3zm3-6h3v6h-3zm6-9h3v6h-3zm3 6h9v3h-9zm3 3h6v3h-6zm3 3h3v3h-3zm0 36h6v3h-6zm0 6h3v3h-3zm3-51h27v3H63zm0 12h3v3h-3zm0 42h3v3h-3zm3-48h9v3h-9zm0 9h15v3H66zm0 33h3v3h-3zm0 9h3v3h-3zm3-54h6v3h-6zm0 48h3v3h-3zm0 9h3v3h-3zm3-6h3v3h-3zm0 9h3v3h-3zm0 9h3v6h-3zm3-81h9v3h-9zm0 66h9v3h-9zm0 9h3v3h-3zm0 3h12v3H75zm0 9h6v3h-6zm6-66h3v3h-3zm0 42h3v3h-3zm0 27h3v6h-3zm3-87h3v3h-3zm0 9h9v3h-9zm0 3h3v6h-3zm0 24h3v24h-3zm0 30h3v3h-3zm3-63h3v3h-3zm0 21h3v12h-3zm0 45h3v6h-3zm3-57h3v12h-3z" /><path fill="#86be08" d="M21 29h3v3h-3zm0 3h6v3h-6zm0 45h18v3H21zm3-63h24v3H24zm0 21h21v3H24zm0 3h18v3H24zm0 36h18v3H24zm3-33h12v6H27zm0 6h9v6h-9zm0 24h15v3H27zm0 27h6v3h-6zm0 3h9v3h-9zm3-90h21v3H30zm0 42h6v6h-6zm0 6h9v9h-9zm0 9h30v3H30zm3-51h12v3H33zm0 63h6v3h-6zm3 3h3v3h-3zm0 3h6v3h-6zm0 3h15v3H36zm3-81h12v3H39zm0 84h30v3H39zm3-60h3v3h-3zm0 63h30v3H42zm6-72h9v3h-9zm3-3h3v3h-3zm3-12h21v3H54zm0 3h18v3H54zm0 3h15v3H54zm0 3h9v3h-9zm0 9h6v3h-6zm3 3h6v3h-6zm0 3h9v3h-9zm0 39h6v3h-6zm3-12h21v3H60zm0 15h6v3h-6zm0 3h9v6h-9zm0 12h9v3h-9zm3-54h21v6H63zm0 48h9v6h-9zm0 15h12v3H63zm0 3h15v3H63zm3-60h18v6H66zm0 6h15v12H66zm0 15h15v3H66zm3 3h12v3H69zm3 3h9v3h-9zm9-36h6v3h-6zm3-3h3v3h-3z" /><path fill="#2c840b" d="M45 17h6v3h-6zm3-3h3v3h-3zm3-6h3v6h-3zm18 6h18v3H69zm0 66h3v3h-3zm0 9h3v6h-3zm3-78h12v3H72zm0 72h3v6h-3zm0 12h3v3h-3zm3-24h6v3h-6zm0 27h6v3h-6zm3 3h3v3h-3zm3-54h3v24h-3zm3-12h3v12h-3zm3-12h3v12h-3z" /><path fill="#27cdc3" d="M24 20h9v3h-9zm0 3h6v3h-6zm0 3h12v3H24zm3 3h9v3h-9zm36-9h6v3h-6zm0 3h3v3h-3zm0 3h9v3h-9zm3 3h6v3h-6zm9-9h3v6h-3z" /><path fill="#13a79b" d="M36 26h9v3h-9zm0 3h6v3h-6zm3-6h6v3h-6zm33 3h12v3H72zm0 3h9v3h-9zm6-9h6v6h-6z" /><path fill="#f2fb7f" d="M30 95h12v3H30zm3-3h6v3h-6zm0 6h30v3H33zm3-51h27v12H36zm0 54h27v3H36zm3-60h21v3H39zm0 3h24v3H39zm0 15h21v6H39zm3-21h18v3H42zm3-9h12v6H45zm0 6h15v3H45zm3-9h6v3h-6z" /><path fill="#9bd10a" d="M39 77h21v6H39zm0 6h24v3H39zm3-12h15v3H42zm0 3h18v3H42zm0 12h21v3H42zm9 3h9v3h-9zm9-54h3v6h-3zm0 6h6v3h-6zm3 3h3v15h-3z" /><path fill="#ccc" d="M60 65h6v3h-6zm3 3h6v3h-6zm3 3h6v3h-6zm3 3h6v3h-6zm3 3h12v3H72z" /><path fill="#ffc915" d="M75 80h3v3h-3zm3 3h3v3h-3z" /><path fill="#ff9007" d="M78 80h9v3h-9zm3 3h6v3h-6z" /></svg>
